<?xml version="1.0" encoding="UTF-8" standalone="no"?><!DOCTYPE svg PUBLIC "-//W3C//DTD SVG 1.1//EN" "http://www.w3.org/Graphics/SVG/1.1/DTD/svg11.dtd"><svg width="100%" height="100%" viewBox="0 0 67 67" version="1.1" xmlns="http://www.w3.org/2000/svg" xmlns:xlink="http://www.w3.org/1999/xlink" xml:space="preserve" xmlns:serif="http://www.serif.com/" style="fill-rule:evenodd;clip-rule:evenodd;stroke-linejoin:round;stroke-miterlimit:2;"><g><path d="M65.175,38.709l0,25.341c0,0.777 -0.631,1.407 -1.408,1.405l-61.291,-0.123c-0.777,-0.002 -1.408,-0.634 -1.408,-1.411l0,-25.341c0,-0.777 0.631,-1.407 1.408,-1.405l61.291,0.123c0.777,0.002 1.408,0.634 1.408,1.411Z" style="fill:#212b48;"/><g><path d="M8.873,61.178c-0.354,-0.001 -0.651,-0.122 -0.893,-0.365c-0.242,-0.242 -0.363,-0.541 -0.363,-0.894l0,-17.087c0,-0.354 0.121,-0.656 0.363,-0.907c0.242,-0.251 0.54,-0.376 0.893,-0.375l6.505,0.013c1.768,0.004 3.211,0.258 4.328,0.763c1.117,0.505 1.94,1.181 2.471,2.029c0.53,0.848 0.796,1.812 0.796,2.891c0,1.08 -0.302,2.084 -0.907,3.014c-0.605,0.929 -1.522,1.607 -2.75,2.033c0.782,0.206 1.405,0.575 1.871,1.107c0.465,0.531 0.814,1.132 1.047,1.803c0.233,0.671 0.386,1.318 0.461,1.941c0.074,0.624 0.112,1.131 0.112,1.522l0,1.284c0,0.354 -0.121,0.651 -0.363,0.893c-0.242,0.241 -0.54,0.362 -0.893,0.361c-0.391,-0.001 -0.703,-0.118 -0.935,-0.351c-0.233,-0.233 -0.349,-0.536 -0.349,-0.908l0,-0.838c0,-0.465 -0.033,-1.014 -0.098,-1.647c-0.065,-0.633 -0.228,-1.257 -0.489,-1.872c-0.261,-0.615 -0.684,-1.123 -1.27,-1.524c-0.586,-0.401 -1.41,-0.603 -2.471,-0.605l-5.779,-0.012l0,6.477c0,0.354 -0.126,0.651 -0.377,0.893c-0.251,0.241 -0.554,0.362 -0.907,0.361Zm1.284,-10.132l5.053,0.01c1.564,0.003 2.825,-0.301 3.783,-0.914c0.959,-0.612 1.438,-1.514 1.438,-2.705c0,-0.689 -0.158,-1.294 -0.475,-1.816c-0.316,-0.522 -0.866,-0.928 -1.647,-1.218c-0.782,-0.29 -1.861,-0.437 -3.239,-0.439l-4.914,-0.01l0,7.092Z" style="fill:#e78a53;fill-rule:nonzero;"/><path d="M28.752,61.148c-0.354,-0.001 -0.651,-0.122 -0.893,-0.365c-0.242,-0.242 -0.363,-0.541 -0.363,-0.894l0,-16.947c0,-0.354 0.121,-0.656 0.363,-0.907c0.242,-0.251 0.54,-0.376 0.893,-0.375l11.196,0.023c0.335,0.001 0.619,0.118 0.852,0.351c0.233,0.233 0.349,0.517 0.349,0.852c0,0.335 -0.116,0.614 -0.349,0.837c-0.233,0.223 -0.517,0.334 -0.852,0.333l-9.912,-0.02l0,6.17l8.906,0.018c0.335,0.001 0.619,0.118 0.852,0.351c0.233,0.233 0.349,0.517 0.349,0.852c0,0.335 -0.116,0.614 -0.349,0.837c-0.233,0.223 -0.517,0.334 -0.852,0.333l-8.906,-0.018l0,6.198l9.912,0.02c0.335,0.001 0.619,0.118 0.852,0.351c0.233,0.233 0.349,0.517 0.349,0.852c0,0.335 -0.116,0.614 -0.349,0.837c-0.233,0.223 -0.517,0.334 -0.852,0.333l-11.196,-0.023Z" style="fill:#e78a53;fill-rule:nonzero;"/><path d="M46.565,61.254c-0.354,-0.001 -0.651,-0.122 -0.893,-0.365c-0.242,-0.242 -0.363,-0.541 -0.363,-0.894l0,-17.087c0,-0.354 0.121,-0.656 0.363,-0.907c0.242,-0.251 0.54,-0.376 0.893,-0.375l10.861,0.022c0.335,0.001 0.619,0.118 0.852,0.351c0.233,0.233 0.349,0.517 0.349,0.852c0,0.335 -0.116,0.614 -0.349,0.837c-0.233,0.223 -0.517,0.334 -0.852,0.333l-9.577,-0.019l0,6.17l8.599,0.017c0.335,0.001 0.619,0.118 0.852,0.351c0.233,0.233 0.349,0.517 0.349,0.852c0,0.335 -0.116,0.614 -0.349,0.837c-0.233,0.223 -0.517,0.334 -0.852,0.333l-8.599,-0.017l0,7.455c0,0.354 -0.126,0.651 -0.377,0.893c-0.251,0.241 -0.554,0.362 -0.907,0.361Z" style="fill:#e78a53;fill-rule:nonzero;"/></g><path d="M17.589,33.59l-8.619,0c-2.967,0 -5.157,-0.702 -6.57,-2.105c-1.413,-1.403 -2.119,-3.564 -2.119,-6.483l0,-13.092c0,-2.947 0.706,-5.122 2.119,-6.525c1.413,-1.403 3.603,-2.105 6.57,-2.105l8.619,0c0.848,0 1.272,0.505 1.272,1.515l0,5.094c0,1.01 -0.424,1.515 -1.272,1.515l-7.1,0c-1.436,0 -2.155,0.702 -2.155,2.105l0,10.019c0,1.347 0.718,2.021 2.155,2.021l7.1,0c0.848,0 1.272,0.505 1.272,1.515l0,5.009c0,1.01 -0.424,1.515 -1.272,1.515Z" style="fill:#e68953;fill-rule:nonzero;"/><path d="M35.165,33.707l-11.162,0c-0.848,0 -1.272,-0.505 -1.272,-1.515l0,-4.925c0,-1.01 0.424,-1.515 1.272,-1.515l9.502,0c0.306,0 0.536,-0.119 0.689,-0.358c0.153,-0.239 0.23,-0.526 0.23,-0.863c0,-0.477 -0.077,-0.828 -0.23,-1.052c-0.153,-0.225 -0.383,-0.351 -0.689,-0.379l-5.298,-0.884c-1.648,-0.309 -2.973,-0.961 -3.974,-1.957c-1.001,-0.996 -1.501,-2.673 -1.501,-5.03l0,-4.42c0,-2.413 0.648,-4.252 1.943,-5.514c1.295,-1.263 3.085,-1.894 5.369,-1.894l9.891,0c0.848,0 1.272,0.505 1.272,1.515l0,5.009c0,1.01 -0.424,1.515 -1.272,1.515l-8.23,0c-0.636,0 -0.954,0.421 -0.954,1.263c0,0.814 0.318,1.263 0.954,1.347l5.263,0.842c1.107,0.196 2.072,0.54 2.897,1.031c0.824,0.491 1.466,1.214 1.925,2.168c0.459,0.954 0.689,2.217 0.689,3.789l0,4.42c0,2.385 -0.648,4.217 -1.943,5.493c-1.295,1.277 -3.085,1.915 -5.369,1.915Z" style="fill:#e68953;fill-rule:nonzero;"/><path d="M58.781,33.707l-11.162,0c-0.848,0 -1.272,-0.505 -1.272,-1.515l0,-4.925c0,-1.01 0.424,-1.515 1.272,-1.515l9.502,0c0.306,0 0.536,-0.119 0.689,-0.358c0.153,-0.239 0.23,-0.526 0.23,-0.863c0,-0.477 -0.077,-0.828 -0.23,-1.052c-0.153,-0.225 -0.383,-0.351 -0.689,-0.379l-5.298,-0.884c-1.648,-0.309 -2.973,-0.961 -3.974,-1.957c-1.001,-0.996 -1.501,-2.673 -1.501,-5.03l0,-4.42c0,-2.413 0.648,-4.252 1.943,-5.514c1.295,-1.263 3.085,-1.894 5.369,-1.894l9.891,0c0.848,0 1.272,0.505 1.272,1.515l0,5.009c0,1.01 -0.424,1.515 -1.272,1.515l-8.23,0c-0.636,0 -0.954,0.421 -0.954,1.263c0,0.814 0.318,1.263 0.954,1.347l5.263,0.842c1.107,0.196 2.072,0.54 2.897,1.031c0.824,0.491 1.466,1.214 1.925,2.168c0.459,0.954 0.689,2.217 0.689,3.789l0,4.42c0,2.385 -0.648,4.217 -1.943,5.493c-1.295,1.277 -3.085,1.915 -5.369,1.915Z" style="fill:#e68953;fill-rule:nonzero;"/></g></svg>