<?xml version="1.0" encoding="UTF-8" standalone="no"?><!DOCTYPE svg PUBLIC "-//W3C//DTD SVG 1.1//EN" "http://www.w3.org/Graphics/SVG/1.1/DTD/svg11.dtd"><svg width="100%" height="100%" viewBox="0 0 480 211" version="1.1" xmlns="http://www.w3.org/2000/svg" xmlns:xlink="http://www.w3.org/1999/xlink" xml:space="preserve" xmlns:serif="http://www.serif.com/" style="fill-rule:evenodd;clip-rule:evenodd;stroke-linejoin:round;stroke-miterlimit:2;"><g><path d="M437.529,119.589l0,50.88c0,1.56 -1.24,2.644 -2.766,2.418l-103.42,-15.265c-1.527,-0.225 -2.766,-1.675 -2.766,-3.235l0,-50.88c0,-1.56 1.24,-2.644 2.766,-2.418l103.42,15.265c1.527,0.225 2.766,1.675 2.766,3.235Z" style="fill:#212b48;"/><g><path d="M341.841,147.584c-0.601,-0.089 -1.107,-0.369 -1.518,-0.841c-0.411,-0.472 -0.617,-1.008 -0.617,-1.609l0,-29.04c0,-0.601 0.206,-1.085 0.617,-1.451c0.411,-0.366 0.917,-0.505 1.518,-0.416l11.056,1.632c3.005,0.444 5.457,1.233 7.355,2.367c1.898,1.134 3.298,2.488 4.199,4.06c0.902,1.572 1.352,3.276 1.352,5.111c0,1.835 -0.514,3.467 -1.542,4.897c-1.028,1.43 -2.586,2.355 -4.674,2.774c1.329,0.544 2.388,1.325 3.179,2.344c0.791,1.018 1.384,2.126 1.779,3.323c0.395,1.197 0.656,2.335 0.783,3.413c0.127,1.078 0.19,1.95 0.19,2.614l0,2.183c0,0.601 -0.206,1.077 -0.617,1.427c-0.411,0.351 -0.917,0.481 -1.518,0.393c-0.664,-0.098 -1.194,-0.374 -1.59,-0.828c-0.395,-0.454 -0.593,-0.997 -0.593,-1.63l0,-1.424c0,-0.791 -0.055,-1.732 -0.166,-2.824c-0.111,-1.092 -0.388,-2.193 -0.83,-3.302c-0.443,-1.109 -1.163,-2.078 -2.159,-2.905c-0.996,-0.827 -2.396,-1.374 -4.199,-1.64l-9.822,-1.45l0,11.009c0,0.601 -0.214,1.076 -0.641,1.424c-0.427,0.348 -0.941,0.478 -1.542,0.389Zm2.183,-16.903l8.589,1.268c2.657,0.392 4.801,0.187 6.43,-0.617c1.629,-0.803 2.444,-2.217 2.444,-4.242c0,-1.17 -0.269,-2.238 -0.807,-3.203c-0.538,-0.965 -1.471,-1.791 -2.8,-2.477c-1.329,-0.686 -3.163,-1.202 -5.504,-1.548l-8.351,-1.233l0,12.053Z" style="fill:#e78a53;fill-rule:nonzero;"/><path d="M375.627,152.452c-0.601,-0.089 -1.107,-0.369 -1.518,-0.841c-0.411,-0.472 -0.617,-1.008 -0.617,-1.609l0,-28.803c0,-0.601 0.206,-1.085 0.617,-1.451c0.411,-0.366 0.917,-0.505 1.518,-0.416l19.028,2.809c0.569,0.084 1.052,0.353 1.447,0.807c0.395,0.454 0.593,0.965 0.593,1.535c0,0.569 -0.198,1.015 -0.593,1.336c-0.395,0.321 -0.878,0.44 -1.447,0.356l-16.845,-2.486l0,10.487l15.137,2.234c0.569,0.084 1.052,0.353 1.447,0.807c0.395,0.454 0.593,0.965 0.593,1.535c0,0.569 -0.198,1.015 -0.593,1.336c-0.395,0.321 -0.878,0.44 -1.447,0.356l-15.137,-2.234l0,10.534l16.845,2.486c0.569,0.084 1.052,0.353 1.447,0.807c0.395,0.454 0.593,0.965 0.593,1.535c0,0.569 -0.198,1.015 -0.593,1.336c-0.395,0.321 -0.878,0.44 -1.447,0.356l-19.028,-2.809Z" style="fill:#e78a53;fill-rule:nonzero;"/><path d="M405.901,157.04c-0.601,-0.089 -1.107,-0.369 -1.518,-0.841c-0.411,-0.472 -0.617,-1.008 -0.617,-1.609l0,-29.04c0,-0.601 0.206,-1.085 0.617,-1.451c0.411,-0.366 0.917,-0.505 1.518,-0.416l18.459,2.725c0.569,0.084 1.052,0.353 1.447,0.807c0.395,0.454 0.593,0.965 0.593,1.535c0,0.569 -0.198,1.015 -0.593,1.336c-0.395,0.321 -0.878,0.44 -1.447,0.356l-16.276,-2.402l0,10.487l14.615,2.157c0.569,0.084 1.052,0.353 1.447,0.807c0.395,0.454 0.593,0.965 0.593,1.535c0,0.569 -0.198,1.015 -0.593,1.336c-0.395,0.321 -0.878,0.44 -1.447,0.356l-14.615,-2.157l0,12.67c0,0.601 -0.214,1.076 -0.641,1.424c-0.427,0.348 -0.941,0.478 -1.542,0.389Z" style="fill:#e78a53;fill-rule:nonzero;"/></g><path d="M135.069,194.649l-60.599,0c-20.862,0 -36.26,-4.139 -46.195,-12.418c-9.934,-8.279 -14.901,-21.028 -14.901,-38.247l0,-77.239c0,-17.385 4.967,-30.217 14.901,-38.495c9.934,-8.279 25.332,-12.418 46.195,-12.418l60.599,0c5.961,0 8.941,2.98 8.941,8.941l0,30.051c0,5.961 -2.98,8.941 -8.941,8.941l-49.92,0c-10.1,0 -15.15,4.139 -15.15,12.418l0,59.109c0,7.947 5.05,11.921 15.15,11.921l49.92,0c5.961,0 8.941,2.98 8.941,8.941l0,29.555c0,5.961 -2.98,8.941 -8.941,8.941Z" style="fill:#e68953;fill-rule:nonzero;"/><path d="M255.026,194.649l-78.481,0c-5.961,0 -8.941,-2.98 -8.941,-8.941l0,-29.058c0,-5.961 2.98,-8.941 8.941,-8.941l66.808,0c2.152,0 3.767,-0.704 4.843,-2.111c1.076,-1.407 1.614,-3.104 1.614,-5.091c0,-2.815 -0.538,-4.884 -1.614,-6.209c-1.076,-1.325 -2.691,-2.07 -4.843,-2.235l-37.254,-5.216c-11.59,-1.821 -20.903,-5.671 -27.94,-11.549c-7.037,-5.878 -10.555,-15.771 -10.555,-29.679l0,-26.078c0,-14.239 4.553,-25.084 13.66,-32.535c9.106,-7.451 21.69,-11.176 37.75,-11.176l69.54,0c5.961,0 8.941,2.98 8.941,8.941l0,29.555c0,5.961 -2.98,8.941 -8.941,8.941l-57.867,0c-4.47,0 -6.706,2.484 -6.706,7.451c0,4.802 2.235,7.451 6.706,7.947l37.005,4.967c7.782,1.159 14.57,3.187 20.365,6.085c5.795,2.898 10.307,7.161 13.535,12.79c3.229,5.629 4.843,13.08 4.843,22.352l0,26.078c0,14.074 -4.553,24.877 -13.66,32.411c-9.106,7.534 -21.69,11.3 -37.75,11.3Z" style="fill:#e68953;fill-rule:nonzero;"/><path d="M328.558,95.97c-1.443,-0.293 -0.763,-6.61 -0.763,-10.35l0,-26.078c0,-14.239 4.553,-25.084 13.66,-32.535c9.106,-7.451 21.69,-11.176 37.75,-11.176l69.54,0c5.961,0 8.941,2.98 8.941,8.941l0,29.555c0,5.961 -2.98,8.941 -8.941,8.941l-57.867,0c-4.47,0 -6.706,2.484 -6.706,7.451c0,4.802 2.235,7.451 6.706,7.947l37.005,4.967c7.782,1.159 14.57,3.187 20.365,6.085c5.795,2.898 10.307,7.161 13.535,12.79c3.229,5.629 4.843,13.08 4.843,22.352l0,26.078c0,14.074 -4.553,24.877 -13.66,32.411c-9.106,7.534 -21.69,11.3 -37.75,11.3l-78.481,0c-5.961,0 -8.941,-2.98 -8.941,-8.941c0,0 -0.999,-24.026 0,-23.901c18.478,2.307 111.479,16.455 111.479,16.455c1.781,0.263 3.227,-1.001 3.227,-2.821l0,-59.354c0,-1.82 -1.446,-3.511 -3.227,-3.774c0,0 -91.993,-12.538 -110.716,-16.342Z" style="fill:#e68953;"/></g></svg>